<svg width="834" height="1506" viewBox="0 0 834 1506" fill="none" xmlns="http://www.w3.org/2000/svg">
<rect x="47" y="1444" width="744" height="60" fill="url(#paint0_linear_5_32)" stroke="#C6CBCE" stroke-width="4"/>
<rect x="56" y="1279" width="724" height="163" fill="url(#paint1_linear_5_32)"/>
<rect x="56" y="1116" width="724" height="163" fill="url(#paint2_linear_5_32)"/>
<rect x="56" y="953" width="724" height="163" fill="url(#paint3_linear_5_32)"/>
<rect x="56" y="790" width="724" height="163" fill="url(#paint4_linear_5_32)"/>
<rect x="56" y="627" width="724" height="163" fill="url(#paint5_linear_5_32)"/>
<rect x="56" y="464" width="724" height="163" fill="url(#paint6_linear_5_32)"/>
<rect x="56" y="281" width="724" height="183" fill="url(#paint7_linear_5_32)"/>
<path d="M61.7275 279L417 4.52735L772.272 279H61.7275Z" fill="url(#paint8_linear_5_32)" stroke="#C6CBCE" stroke-width="4"/>
<path d="M107.5 1445V281.5L416.5 4.5M416.5 4.5L239 281.5V1445M416.5 4.5L419 1445" stroke="#C6CBCE" stroke-width="4"/>
<path d="M596.5 276L417 2.5L723 278.5V1442H596.5V276Z" stroke="#C6CBCE" stroke-width="4"/>
<rect x="47" y="1444" width="126" height="60" stroke="#C6CBCE" stroke-width="4"/>
<rect x="173" y="1444" width="126" height="60" stroke="#C6CBCE" stroke-width="4"/>
<rect x="551" y="1444" width="126" height="60" stroke="#C6CBCE" stroke-width="4"/>
<rect x="677" y="1444" width="114" height="60" stroke="#C6CBCE" stroke-width="4"/>
<rect x="299" y="1444" width="126" height="60" stroke="#C6CBCE" stroke-width="4"/>
<rect x="425" y="1444" width="126" height="60" stroke="#C6CBCE" stroke-width="4"/>
<defs>
<linearGradient id="paint0_linear_5_32" x1="45" y1="1474" x2="793" y2="1474" gradientUnits="userSpaceOnUse">
<stop stop-color="#363636"/>
<stop offset="1" stop-color="#737373"/>
</linearGradient>
<linearGradient id="paint1_linear_5_32" x1="56" y1="1360.5" x2="780" y2="1360.5" gradientUnits="userSpaceOnUse">
<stop stop-color="#D9D9D8"/>
<stop offset="0.5" stop-color="#A6AFB4"/>
<stop offset="1" stop-color="#D3CEC8"/>
</linearGradient>
<linearGradient id="paint2_linear_5_32" x1="56" y1="1197.5" x2="780" y2="1197.5" gradientUnits="userSpaceOnUse">
<stop stop-color="#CACBCF"/>
<stop offset="0.5" stop-color="#8B97A3"/>
<stop offset="1" stop-color="#CBC7BE"/>
</linearGradient>
<linearGradient id="paint3_linear_5_32" x1="56" y1="1034.5" x2="780" y2="1034.5" gradientUnits="userSpaceOnUse">
<stop stop-color="#D9D9D8"/>
<stop offset="0.5" stop-color="#A6AFB4"/>
<stop offset="1" stop-color="#D3CEC8"/>
</linearGradient>
<linearGradient id="paint4_linear_5_32" x1="56" y1="871.5" x2="780" y2="871.5" gradientUnits="userSpaceOnUse">
<stop stop-color="#CACBCF"/>
<stop offset="0.5" stop-color="#8B97A3"/>
<stop offset="1" stop-color="#CBC7BE"/>
</linearGradient>
<linearGradient id="paint5_linear_5_32" x1="56" y1="708.5" x2="780" y2="708.5" gradientUnits="userSpaceOnUse">
<stop stop-color="#D9D9D8"/>
<stop offset="0.5" stop-color="#A6AFB4"/>
<stop offset="1" stop-color="#D3CEC8"/>
</linearGradient>
<linearGradient id="paint6_linear_5_32" x1="56" y1="545.5" x2="780" y2="545.5" gradientUnits="userSpaceOnUse">
<stop stop-color="#CACBCF"/>
<stop offset="0.5" stop-color="#8B97A3"/>
<stop offset="1" stop-color="#CBC7BE"/>
</linearGradient>
<linearGradient id="paint7_linear_5_32" x1="56" y1="372.5" x2="780" y2="372.5" gradientUnits="userSpaceOnUse">
<stop stop-color="#D9D9D8"/>
<stop offset="0.5" stop-color="#A6AFB4"/>
<stop offset="1" stop-color="#D3CEC8"/>
</linearGradient>
<linearGradient id="paint8_linear_5_32" x1="154.275" y1="207.113" x2="670.05" y2="205.444" gradientUnits="userSpaceOnUse">
<stop stop-color="#666666"/>
<stop offset="0.34" stop-color="#484848"/>
<stop offset="0.685" stop-color="#6B6B6B"/>
<stop offset="1" stop-color="#9B9C98"/>
</linearGradient>
</defs>
</svg>
